<?xml version="1.0" encoding="UTF-8"?>
<svg xmlns="http://www.w3.org/2000/svg" width="320" height="96" viewBox="0 0 320 96" role="img" aria-label="Logo BrinqueTEAndo">
  <defs>
    <linearGradient id="gradBlue" x1="0" x2="1" y1="0" y2="0">
      <stop offset="0%" stop-color="#8ECAE7"/>
      <stop offset="100%" stop-color="#21388D"/>
    </linearGradient>
    <linearGradient id="gradOrange" x1="0" x2="1" y1="0" y2="0">
      <stop offset="0%" stop-color="#FF7A00"/>
      <stop offset="100%" stop-color="#FFC300"/>
    </linearGradient>
  </defs>
  <rect x="0" y="0" width="320" height="96" rx="14" fill="#0A0F1F" />
  <g transform="translate(12,20)">
    <!-- Ãcone infinito simplificado -->
    <path d="M40,28 C32,12 16,12 8,28 C0,44 16,44 24,28 C32,12 48,12 56,28 C64,44 48,44 40,28 Z" fill="url(#gradBlue)" opacity="0.9"/>
    <path d="M48,28 C56,12 72,12 80,28 C88,44 72,44 64,28 C56,12 40,12 32,28 C24,44 40,44 48,28 Z" fill="url(#gradOrange)" opacity="0.9"/>
    <!-- TEA -->
    <text x="96" y="34" font-family="system-ui, -apple-system, Arial" font-weight="800" font-size="28" fill="#E6F1FF">TEA</text>
    <!-- brinqueTEAndo -->
    <text x="96" y="60" font-family="system-ui, -apple-system, Arial" font-weight="700" font-size="20" fill="#8ECAE7">brinque</text>
    <text x="169" y="60" font-family="system-ui, -apple-system, Arial" font-weight="800" font-size="20" fill="#FF7A00">TEA</text>
    <text x="209" y="60" font-family="system-ui, -apple-system, Arial" font-weight="700" font-size="20" fill="#FFC300">ndo</text>
  </g>
</svg>
